<?xml version="1.0" encoding="UTF-8" standalone="no"?>
<!-- Created with Inkscape (http://www.inkscape.org/) -->

<svg
   version="1.1"
   id="svg1"
   width="4569.4531"
   height="841.33331"
   viewBox="0 0 4569.4531 841.33331"
   sodipodi:docname="REVMA CENTER LOGO.eps"
   xmlns:inkscape="http://www.inkscape.org/namespaces/inkscape"
   xmlns:sodipodi="http://sodipodi.sourceforge.net/DTD/sodipodi-0.dtd"
   xmlns="http://www.w3.org/2000/svg"
   xmlns:svg="http://www.w3.org/2000/svg">
  <defs
     id="defs1" />
  <sodipodi:namedview
     id="namedview1"
     pagecolor="#ffffff"
     bordercolor="#000000"
     borderopacity="0.25"
     inkscape:showpageshadow="2"
     inkscape:pageopacity="0.0"
     inkscape:pagecheckerboard="0"
     inkscape:deskcolor="#d1d1d1">
    <inkscape:page
       x="0"
       y="0"
       inkscape:label="1"
       id="page1"
       width="4569.4531"
       height="841.33331"
       margin="0"
       bleed="0" />
  </sodipodi:namedview>
  <g
     id="g1"
     inkscape:groupmode="layer"
     inkscape:label="1">
    <g
       id="group-R5">
      <path
         id="path2"
         d="M 15870,0 H 0 V 4310 C 0,5414.57 895.434,6310 2000,6310 H 15870 V 0"
         style="fill:#ee2432;fill-opacity:1;fill-rule:nonzero;stroke:none"
         transform="matrix(0.13333333,0,0,-0.13333333,0,841.33333)" />
      <path
         id="path3"
         d="m 34270.9,6310 h -18680 V 0 h 16744.7 c 1068.9,0 1935.3,866.461 1935.3,1935.29 V 6310 Z m -120,-120 V 1935.29 c 0,-484.88 -188.8,-940.739 -531.7,-1283.61 C 33276.4,308.82 32820.5,120 32335.6,120 H 15710.9 v 6070 h 18440"
         style="fill:#ee2432;fill-opacity:1;fill-rule:nonzero;stroke:none"
         transform="matrix(0.13333333,0,0,-0.13333333,0,841.33333)" />
      <path
         id="path4"
         d="m 2408.14,2263.85 c -7.8,140.89 52.99,240.02 179.81,301.52 183.84,89.15 382.02,130.66 578.66,177.53 74.37,17.73 144.96,44.71 199.5,99.5 55.56,55.82 93.64,120.91 74.27,205.25 -0.13,26.32 -7.11,49.8 -28.07,67.46 -49.11,79.78 -131.56,104.75 -218.4,122.5 233.06,43.45 382.14,57.54 438.09,-195.56 0.3,-59.72 -9.32,-118.12 -23.48,-175.9 -9.79,-11.46 -19.57,-22.92 -29.42,-34.36 -104.91,-189.2 -285.73,-246.66 -481.82,-265.51 -56.3,-5.41 -100.77,-29.79 -149.21,-46.9 -81.04,-28.62 -168.86,-19.85 -248.39,-59.51 -129.94,-64.81 -157.85,-174.83 -58.42,-280.36 38.05,-40.38 76.47,-85.73 137.78,-94.89 14.77,-2.21 26.07,-9.15 26.98,-25.53 1.13,-20.41 -14.76,-24.54 -29.65,-31.72 -139.65,-67.4 -290.47,0.93 -346.23,158.22 -9.03,25.48 -14.75,52.14 -22,78.26"
         style="fill:#ffffff;fill-opacity:1;fill-rule:nonzero;stroke:none"
         transform="matrix(0.13333333,0,0,-0.13333333,0,841.33333)" />
      <path
         id="path5"
         d="m 3093.83,2461.94 c 78.29,42.73 152.07,88.61 233.39,71.17 81.94,-17.58 121.57,-92.88 142.41,-170.18 35.28,-130.89 -36.44,-292.44 -152.32,-366.31 -123.25,-78.56 -256.82,-125.9 -400.4,-148.39 -33.72,-5.28 -67.12,-13.42 -100.11,-22.31 -69.87,-18.82 -129.25,-51.92 -138.83,-132.04 -9.44,-78.9 33,-132.93 92.86,-178.62 18.81,-14.36 73.21,-10.99 48.92,-51.06 -21.08,-34.77 -61.3,-62.46 -111.67,-37.71 -85.43,41.98 -138.84,112.06 -163.63,200.65 -39.72,141.92 42.74,262.24 180.73,311.97 128.13,46.17 260.73,78.01 386.84,129.17 61.94,25.14 118.39,59.46 157.03,116.28 68.81,101.21 27.07,212.5 -90.85,245.92 -25.25,7.15 -49.37,18.27 -84.37,31.46"
         style="fill:#ffffff;fill-opacity:1;fill-rule:nonzero;stroke:none"
         transform="matrix(0.13333333,0,0,-0.13333333,0,841.33333)" />
      <path
         id="path6"
         d="m 3347.98,1696.94 c 1.72,-137.66 -123.41,-286.2 -259.06,-327.31 -88.6,-26.85 -174.92,-67.23 -255.31,-113.6 -102.26,-58.98 -108.86,-146.42 -29.5,-233.16 18.04,-19.7 59.75,-37.741 27.93,-70.081 -25.72,-26.16 -49.87,0.441 -73.58,20.441 -150.81,127.3 -138.59,283.26 30.44,386.25 70.58,43.02 145.51,76.29 222.78,103.56 54.43,19.21 99.05,51.83 140.63,88.51 73.56,64.88 78.65,144.54 9.91,214.87 -38.55,39.44 -38.77,55.78 12.96,79.59 97.11,44.68 171.15,-17.33 172.8,-149.07"
         style="fill:#ffffff;fill-opacity:1;fill-rule:nonzero;stroke:none"
         transform="matrix(0.13333333,0,0,-0.13333333,0,841.33333)" />
      <path
         id="path7"
         d="m 2973.83,891.672 c 0,-97.832 0.3,-195.66 -0.24,-293.481 -0.12,-21.761 5.17,-51 -28.09,-52 -34.89,-1.039 -28.22,29.528 -28.97,50.539 -6.8,191.059 -12.16,382.172 -19.63,573.19 -1.58,40.34 17.61,62.69 53.17,65.03 46.65,3.09 37.33,-34.78 37.36,-63.39 0.09,-93.3 0.03,-186.591 0.03,-279.88 -4.54,0 -9.09,0 -13.63,-0.008"
         style="fill:#ffffff;fill-opacity:1;fill-rule:nonzero;stroke:none"
         transform="matrix(0.13333333,0,0,-0.13333333,0,841.33333)" />
      <path
         id="path8"
         d="m 2876.45,2256.39 c 0,36.46 4.25,73.53 -0.91,109.25 -9.99,69.27 24.3,85.57 84.63,85.32 35.06,-0.14 50.79,-9.44 50.18,-45.53 -1.49,-88.9 -2.31,-177.83 -1.97,-266.73 0.28,-71.95 -67.79,-45.08 -100.43,-69.45 -11.44,-8.55 -22.76,11.83 -24.42,64.12 -1.31,40.97 -0.27,82.01 -0.27,123.02 -2.27,0 -4.54,0 -6.81,0"
         style="fill:#ffffff;fill-opacity:1;fill-rule:nonzero;stroke:none"
         transform="matrix(0.13333333,0,0,-0.13333333,0,841.33333)" />
      <path
         id="path9"
         d="m 3218.92,1146.66 c -7.82,-67.88 -41.82,-142.07 -115.78,-193.851 -14.4,-10.09 -32.57,-21.758 -48.97,-3.821 -19.5,21.321 -2.47,35.371 11.74,51.382 92.05,103.65 94.33,141.07 13.51,246.25 -15.34,19.96 -19.04,35.16 1.4,52 22.28,18.35 46.09,32.37 73.44,11.17 46.55,-36.08 66.16,-85.25 64.66,-163.13"
         style="fill:#ffffff;fill-opacity:1;fill-rule:nonzero;stroke:none"
         transform="matrix(0.13333333,0,0,-0.13333333,0,841.33333)" />
      <path
         id="path10"
         d="m 2895.01,1645.33 c 0,24.89 3.94,50.56 -0.84,74.5 -9.15,45.78 18.39,54.36 52.42,59.34 42.99,6.3 49.88,-22.91 50.02,-54.29 0.25,-56.58 -2.21,-113.15 -3.31,-169.73 -0.83,-42.34 -31.78,-54.71 -64.11,-54.9 -37.1,-0.24 -28.63,33.85 -30,56.83 -1.75,29.32 -0.42,58.83 -0.42,88.25 -1.26,0 -2.51,0 -3.76,0"
         style="fill:#ffffff;fill-opacity:1;fill-rule:nonzero;stroke:none"
         transform="matrix(0.13333333,0,0,-0.13333333,0,841.33333)" />
      <path
         id="path11"
         d="m 2253.07,3003.03 c -10.46,107.99 61.7,175.16 122.53,247.91 92.54,47.88 190.56,81.57 289.72,112.37 141,35.12 276.55,94.87 424.19,99.79 132.14,4.41 265.15,0.35 391.61,47.39 48.89,18.17 96.64,40.39 142.69,64.93 39.17,20.88 61.47,55.78 50.78,102.12 -9.9,42.97 -42.78,61.82 -83.92,69.64 -46.37,8.8 -90.49,-1.16 -134.78,-13.13 -89.13,-24.11 -178.26,-36.07 -264.34,10.48 -23.31,12.61 -53.15,23.21 -53.4,56.02 -0.23,30.41 32.18,27.49 49.57,39.78 102.5,72.48 213.9,120.69 341.87,122.38 185.34,2.43 327.76,-98.59 346.77,-252.99 14.86,-120.68 -27.97,-219.81 -131.81,-288.68 -40.79,-17.26 -81.58,-34.51 -122.37,-51.77 -170.91,-44.79 -349.13,-33.99 -521.06,-66.55 -160.52,-30.39 -324.84,-41.57 -481.48,-92.4 -89.29,-28.97 -164.87,-72.62 -176.24,-176.57 -10.86,-99.27 51.17,-197.41 153.97,-243.91 57.56,-26.03 118.53,-44.53 178.69,-66.69 -125.96,-114.98 -258.13,-106.68 -425.39,25.45 -66.39,71.83 -86.02,161.58 -97.6,254.43"
         style="fill:#ffffff;fill-opacity:1;fill-rule:nonzero;stroke:none"
         transform="matrix(0.13333333,0,0,-0.13333333,0,841.33333)" />
      <path
         id="path12"
         d="m 3470.61,4498.63 c -71.98,-52.09 -142.11,-107.26 -231.76,-127.58 -24.82,-5.63 -48.73,-9.87 -74.13,-2.79 -25.57,7.13 -36.83,24.83 -42.09,48.66 -5.98,27.14 7.3,45.19 30.38,54.27 207.47,81.61 328.22,243.71 418.1,438.68 52.78,114.48 168.05,164.31 312.1,145.51 147.83,-19.29 286.65,-74.4 430.12,-111.04 248.05,-63.36 497.86,-116.74 755.92,-112.85 47.81,0.71 95.51,7.64 143.32,10.94 13.1,0.91 29.66,3.89 35.64,-12.1 7.15,-19.11 -8.54,-25.44 -21.67,-35.79 -79.16,-62.45 -172.08,-76.81 -268.18,-78.45 -251.11,-4.28 -495.99,34.05 -734.14,113.42 -80.08,26.69 -161.32,54.07 -244.69,58.22 -127.99,6.39 -226.09,-57.45 -300.69,-159.07 -69.41,-76.68 -138.82,-153.35 -208.23,-230.03"
         style="fill:#ffffff;fill-opacity:1;fill-rule:nonzero;stroke:none"
         transform="matrix(0.13333333,0,0,-0.13333333,0,841.33333)" />
      <path
         id="path13"
         d="m 771.258,4729.58 c -41.711,21.86 -83.492,43.59 -125.078,65.68 -14.219,7.55 -31.364,16.87 -26.207,35.16 6.757,23.94 31.875,18.12 46.55,14.63 159.825,-38 323.032,-15.45 478.617,4.2 173.43,21.9 346.76,70.81 515.21,128.08 96.01,32.64 193.65,61.86 294.26,79.09 193.36,33.12 306.27,-20.69 389.82,-195.36 81.75,-170.91 197.34,-306.34 374.64,-382.19 30.22,-12.93 65.13,-22.97 51.39,-65.86 -13.09,-40.85 -48.55,-55.31 -87.72,-48.36 -90.38,16.03 -165.47,62.9 -232.06,124.6 -28.36,26.27 -57.19,52.04 -85.81,78.04 -53.08,59.33 -102.61,122.38 -159.95,177.27 -134.24,128.49 -280.63,183.13 -472.81,115.27 -309.24,-109.2 -628.68,-175.05 -960.852,-130.25"
         style="fill:#ffffff;fill-opacity:1;fill-rule:nonzero;stroke:none"
         transform="matrix(0.13333333,0,0,-0.13333333,0,841.33333)" />
      <path
         id="path14"
         d="m 2946.19,5226.79 c 129.03,1.08 278.05,-113.13 278.67,-275.72 0.6,-157.65 -122.65,-292.62 -270.41,-295.37 -186.8,-3.49 -290.47,143.45 -291.04,281.74 -0.65,162.22 123.07,288.01 282.78,289.35"
         style="fill:#ffffff;fill-opacity:1;fill-rule:nonzero;stroke:none"
         transform="matrix(0.13333333,0,0,-0.13333333,0,841.33333)" />
      <path
         id="path15"
         d="m 2003.01,3661.4 c 18.06,253.72 252.76,326.36 458.93,283.6 93.57,-19.41 177.7,-64.58 261.4,-109.83 36.97,-20 31.54,-41.66 7.36,-63.31 -48.92,-43.83 -105.94,-69.26 -173.4,-59.34 -49.52,7.28 -98.7,16.92 -147.9,26.24 -38.3,7.25 -76.59,12.86 -115.21,3.55 -38.08,-9.18 -67.1,-31.46 -77.76,-69.28 -10.88,-38.57 13.04,-66.08 41.62,-86.46 96.97,-69.18 206.13,-105.3 324.64,-112.63 29.46,-1.83 59.32,2.87 88.77,0.96 24.34,-1.56 64.43,24.28 69.67,-12.07 5.34,-36.97 -42.84,-18.26 -63.46,-32.31 -13.15,-2.92 -26.27,-6.02 -39.47,-8.73 -122.99,-25.27 -238.66,-96.28 -371.6,-59.6 -13.64,3.88 -27.27,7.75 -40.91,11.62 l -0.78,0.96 c -34.56,18.56 -69.13,37.11 -103.7,55.67 -20.09,17.5 -40.17,35 -60.26,52.5 -17.82,41.37 -35.65,82.73 -53.47,124.09 -1.49,18.13 -2.98,36.25 -4.47,54.37"
         style="fill:#ffffff;fill-opacity:1;fill-rule:nonzero;stroke:none"
         transform="matrix(0.13333333,0,0,-0.13333333,0,841.33333)" />
      <path
         id="path16"
         d="m 3027.72,4099.15 c 0,-129.74 -1.36,-259.5 0.64,-389.21 0.84,-54.46 -22.77,-104.15 -21.04,-159.78 1.29,-41.21 -40.27,-52.74 -80.35,-51.11 -39.05,1.59 -55.44,18.34 -56.98,58.97 -11.88,314.2 -24.91,628.37 -39.16,942.48 -2.73,60.23 25.41,81.6 81.06,82.29 164.83,2.04 140.36,7.23 142.24,-135.13 1.54,-116.15 0.32,-232.33 0.32,-348.5 -8.92,0 -17.83,0 -26.73,-0.01"
         style="fill:#ffffff;fill-opacity:1;fill-rule:nonzero;stroke:none"
         transform="matrix(0.13333333,0,0,-0.13333333,0,841.33333)" />
      <path
         id="path17"
         d="m 4743.35,4533.85 c -207.33,14.63 -406.65,64.08 -598.96,143.15 -30.09,12.37 -54.37,27.98 -36.99,66.23 14.93,32.82 35.04,49.14 75.36,34.58 139.22,-50.23 283.96,-78.76 429.62,-102.84 122.37,-20.23 245.43,-16.99 368.68,-11.83 20.87,0.87 52.96,15.23 60.74,-12.49 9.51,-33.88 -21.94,-53.29 -47.96,-66.5 -78.34,-39.79 -162.5,-54.2 -250.49,-50.3"
         style="fill:#ffffff;fill-opacity:1;fill-rule:nonzero;stroke:none"
         transform="matrix(0.13333333,0,0,-0.13333333,0,841.33333)" />
      <path
         id="path18"
         d="m 825.969,4663.72 c 272.001,-7.42 542.231,0.89 803.341,90.33 21.49,7.35 44.01,12.68 64.21,22.66 55.08,27.21 73.36,-13.27 93.52,-49.31 26.92,-48.12 -19.12,-46.7 -41.91,-55.7 -167.98,-66.38 -342.57,-107.88 -521.03,-133.94 -72.2,4.81 -145.34,-5.36 -216.7,11.86 -73.009,17.63 -144.658,38.41 -181.431,114.1"
         style="fill:#ffffff;fill-opacity:1;fill-rule:nonzero;stroke:none"
         transform="matrix(0.13333333,0,0,-0.13333333,0,841.33333)" />
      <path
         id="path19"
         d="m 3964.26,4552.6 c 46.93,78.96 101.97,75.9 173.34,47.62 185.46,-73.46 379.11,-114.75 578.95,-125.28 20.63,-1.09 53.69,6.57 56.08,-23.97 2.07,-26.45 -23.92,-40.28 -48.55,-50.61 -103.15,-43.27 -209.24,-32.93 -314.44,-15.22 -158.91,26.75 -307.51,82.75 -445.38,167.46"
         style="fill:#ffffff;fill-opacity:1;fill-rule:nonzero;stroke:none"
         transform="matrix(0.13333333,0,0,-0.13333333,0,841.33333)" />
      <path
         id="path20"
         d="m 1237.79,4484.85 c 194.14,6.55 374.75,70.86 556.22,131.03 28.66,9.5 52.76,21.63 81.08,-5 58.65,-55.15 56.33,-68.78 -18.03,-98.7 -126.9,-51.06 -256.03,-94.89 -388.71,-128.18 -72.26,-8.04 -143.96,-24.15 -217.46,-13.13 -38.63,5.79 -76.25,14.54 -110.31,34.18 -19.67,11.34 -43.03,24.03 -36.32,51.38 6.7,27.29 33.49,16.82 52.31,19.5 26.95,3.83 54.13,6.03 81.22,8.92"
         style="fill:#ffffff;fill-opacity:1;fill-rule:nonzero;stroke:none"
         transform="matrix(0.13333333,0,0,-0.13333333,0,841.33333)" />
      <path
         id="path21"
         d="m 4330.29,4205.68 c -190.98,15.17 -356.57,96.75 -513.54,200.5 -11.78,7.79 -23.53,18.56 -10.33,32.69 19.9,21.32 39.11,47.89 71.65,46.93 22.08,-0.65 45.05,-7.73 65.64,-16.57 170.13,-73.09 345.37,-127.84 529.46,-152.52 19.22,-2.58 45.84,-1.46 48.51,-28.18 2.64,-26.46 -20.6,-38.9 -40.74,-49.26 -46.83,-24.12 -97.27,-33.16 -150.65,-33.59"
         style="fill:#ffffff;fill-opacity:1;fill-rule:nonzero;stroke:none"
         transform="matrix(0.13333333,0,0,-0.13333333,0,841.33333)" />
      <path
         id="path22"
         d="m 1471.19,4331.11 c 165.32,14.37 315.16,81.08 467.12,139.78 48.96,18.92 92.01,20.01 132.81,-15.36 24.01,-35.97 -1.12,-54.89 -26.86,-70.36 -138.67,-83.34 -282.78,-153.97 -445.67,-175.3 -71.03,-9.3 -140.49,-1.58 -204.28,34.72 -19.24,10.96 -45.64,19.86 -40.2,47.96 4.91,25.41 31.09,21.49 50.6,25.18 22.21,4.19 44.33,8.9 66.48,13.38"
         style="fill:#ffffff;fill-opacity:1;fill-rule:nonzero;stroke:none"
         transform="matrix(0.13333333,0,0,-0.13333333,0,841.33333)" />
      <path
         id="path23"
         d="m 2141.68,4186.31 c -66,-34.35 -121.6,-87.73 -198.09,-103.23 -72.95,-14.78 -144.33,-15.56 -214.4,11.29 -19.4,7.43 -38.65,19.47 -40.1,42.39 -1.79,28.11 23.82,28.64 42.52,35.01 151.58,51.55 291.65,126.19 427.03,210.76 66.14,41.31 110.68,22.6 120.48,-47.43 -45.81,-49.6 -91.63,-99.19 -137.44,-148.79"
         style="fill:#ffffff;fill-opacity:1;fill-rule:nonzero;stroke:none"
         transform="matrix(0.13333333,0,0,-0.13333333,0,841.33333)" />
      <path
         id="path24"
         d="m 4038.89,4075.04 c -174.21,9.07 -301.88,101.06 -407.82,230.77 -19.27,23.59 -35.27,51.15 -7.35,78.91 26.35,26.2 60.06,26.63 87.64,6.17 106.65,-79.1 225.23,-135.44 344.4,-192.04 35.38,-16.82 73.93,-13.01 107.49,-31.63 14.4,-7.99 31.27,-12.8 29.97,-31.92 -1.1,-16.29 -10.81,-29.61 -27.33,-36.13 -40.73,-16.08 -83.43,-21.52 -127,-24.13"
         style="fill:#ffffff;fill-opacity:1;fill-rule:nonzero;stroke:none"
         transform="matrix(0.13333333,0,0,-0.13333333,0,841.33333)" />
      <path
         id="path25"
         d="m 2076.07,4525.74 c -82.33,61.32 -158.8,128.51 -209.67,219.53 -11.4,20.4 -36.26,43.37 -18.36,66.91 16.12,21.19 46.68,13.02 70.81,9.51 85.25,-12.39 159.74,-47.19 223.97,-105.99 66.85,-61.2 118.58,-137.22 191.38,-192.32 13.23,-17.52 26.47,-35.05 44.28,-58.64 -113.35,-16.96 -209.36,14.34 -302.41,61"
         style="fill:#ffffff;fill-opacity:1;fill-rule:nonzero;stroke:none"
         transform="matrix(0.13333333,0,0,-0.13333333,0,841.33333)" />
      <path
         id="path26"
         d="m 3717.23,4689.79 c 71.12,60.8 143.6,118.18 241.54,130.49 27.84,3.5 59.14,10.01 77.74,-8.72 22.44,-22.6 -6.6,-46.53 -17.48,-65.91 -101.46,-180.67 -257.03,-274.89 -464.06,-284.77 -18.59,-0.89 -31.43,1.83 -31.51,23.66 76.99,56.72 130.48,135.6 193.77,205.25"
         style="fill:#ffffff;fill-opacity:1;fill-rule:nonzero;stroke:none"
         transform="matrix(0.13333333,0,0,-0.13333333,0,841.33333)" />
      <path
         id="path27"
         d="m 3006.05,3204.27 c 23.69,-18.7 17.71,-44.9 17.52,-69.58 -0.78,-102.65 -1.37,-205.3 -2.58,-307.94 -0.61,-51.92 -80.01,-106.27 -127.34,-87.45 -21.82,8.69 -18.93,29.13 -19.33,46.77 -2.65,116.27 -2.18,232.69 -8.17,348.78 -2.94,56.87 22.52,72.76 71.88,70.63 22.72,-0.98 45.47,-1.24 68.21,-1.83 0.01,0.01 -0.19,0.62 -0.19,0.62"
         style="fill:#ffffff;fill-opacity:1;fill-rule:nonzero;stroke:none"
         transform="matrix(0.13333333,0,0,-0.13333333,0,841.33333)" />
      <path
         id="path28"
         d="m 3723.1,4029.85 c -59.28,0.31 -112.3,15.44 -152.11,56.43 -62.09,63.93 -113.94,136.16 -155.38,215.46 -16.15,30.9 -24.11,61.9 12.47,83.16 35.89,20.85 70.04,19.26 94.62,-19.83 62.34,-99.13 141.18,-184.27 223.73,-266.49 15.09,-15.03 46.52,-26.86 36.58,-51.2 -8.93,-21.89 -40.42,-13.7 -59.91,-17.53"
         style="fill:#ffffff;fill-opacity:1;fill-rule:nonzero;stroke:none"
         transform="matrix(0.13333333,0,0,-0.13333333,0,841.33333)" />
      <path
         id="path29"
         d="m 2275.4,4046.32 c -39.73,-18.81 -82.43,-20.87 -125.12,-20.27 -16.7,0.24 -39.12,-6.78 -48.29,13.54 -9.29,20.6 15.72,28.78 23.12,43.86 7.48,15.24 21.87,27.09 33.23,40.42 61.25,45.93 112.54,100.99 152.51,166.42 12.69,18.25 26.68,35.75 37.75,54.94 16.44,28.48 33.31,55.64 72.36,46.77 35.76,-8.11 61.25,-27.48 62.48,-68.15 -53.99,-104.01 -120.83,-198.41 -208.04,-277.53"
         style="fill:#ffffff;fill-opacity:1;fill-rule:nonzero;stroke:none"
         transform="matrix(0.13333333,0,0,-0.13333333,0,841.33333)" />
      <path
         id="path30"
         d="m 3502.58,4054.47 c -136.26,-35.86 -169.68,-19.95 -213.76,100.6 -13.24,36.18 -22.13,74.13 -30.7,111.79 -6.56,28.81 10.5,47.93 33.82,60.96 18.97,10.61 37.54,6.17 45.84,-13.88 39.33,-95.12 102.71,-175.56 164.8,-259.47"
         style="fill:#ffffff;fill-opacity:1;fill-rule:nonzero;stroke:none"
         transform="matrix(0.13333333,0,0,-0.13333333,0,841.33333)" />
      <path
         id="path31"
         d="m 2547.33,4061.44 c -50.99,-34.23 -105.52,-34.12 -161.84,-16.7 32.68,83.82 109.27,142.07 134.15,230.43 19.07,20.23 13.9,67.09 60.82,56.62 38.72,-8.63 53.66,-35.68 53.27,-73.33 -10.68,-7.34 -19.36,-13.6 -22.84,-29.34 -13,-58.73 -33.31,-115.23 -63.56,-167.68"
         style="fill:#ffffff;fill-opacity:1;fill-rule:nonzero;stroke:none"
         transform="matrix(0.13333333,0,0,-0.13333333,0,841.33333)" />
      <path
         id="path32"
         d="m 2673.86,4196.24 c 18.66,30.18 5.59,92.95 57.95,86.13 59.41,-7.73 38.56,-67.02 41.83,-107.46 3.43,-42.29 -17.17,-79.29 -38.42,-111.57 -31.36,-47.65 -73.16,-45.89 -112.44,-4.5 17.51,45.62 44.31,87.79 51.08,137.4"
         style="fill:#ffffff;fill-opacity:1;fill-rule:nonzero;stroke:none"
         transform="matrix(0.13333333,0,0,-0.13333333,0,841.33333)" />
      <path
         id="path33"
         d="m 3117.15,4192.32 c 0,16.66 -0.9,28.08 0.19,39.31 2.08,21.62 10.08,40.64 33.63,45.57 26.19,5.48 36.69,-13.92 43.46,-33.7 16.15,-47.15 33.03,-94.26 44.93,-142.55 4.71,-19.12 34.66,-49.28 -8.12,-60.79 -31.11,-8.37 -65.12,-7.7 -84.21,26.11 -22.86,40.47 -26.88,86 -29.88,126.05"
         style="fill:#ffffff;fill-opacity:1;fill-rule:nonzero;stroke:none"
         transform="matrix(0.13333333,0,0,-0.13333333,0,841.33333)" />
      <path
         id="path34"
         d="m 6507.4,3240.29 h 456.65 c 477.18,0 779.91,267.87 779.91,672.29 0,456.95 -323.25,656.53 -795.3,661.78 -215.49,0 -369.42,-21 -441.26,-42.02 z m -446.38,1612.44 c 225.76,47.27 549,73.53 856.86,73.53 477.18,0 785.03,-89.29 1000.53,-288.87 174.45,-157.57 271.93,-399.17 271.93,-672.29 0,-467.45 -287.32,-777.33 -651.62,-903.38 v -15.76 c 266.81,-94.54 425.87,-346.65 507.96,-714.3 112.88,-493.71 194.98,-835.1 266.81,-971.66 h -461.78 c -56.44,99.79 -133.41,404.42 -230.9,845.6 -102.61,488.46 -287.32,672.29 -692.66,688.05 H 6507.4 V 1360 h -446.38 v 3492.73"
         style="fill:#ffffff;fill-opacity:1;fill-rule:nonzero;stroke:none"
         transform="matrix(0.13333333,0,0,-0.13333333,0,841.33333)" />
      <path
         id="path35"
         d="m 6507.4,3240.29 h 456.65 c 477.18,0 779.91,267.87 779.91,672.29 0,456.95 -323.25,656.53 -795.3,661.78 -215.49,0 -369.42,-21 -441.26,-42.02 z m -446.38,1612.44 c 225.76,47.27 549,73.53 856.86,73.53 477.18,0 785.03,-89.29 1000.53,-288.87 174.45,-157.57 271.93,-399.17 271.93,-672.29 0,-467.45 -287.32,-777.33 -651.62,-903.38 v -15.76 c 266.81,-94.54 425.87,-346.65 507.96,-714.3 112.88,-493.71 194.98,-835.1 266.81,-971.66 h -461.78 c -56.44,99.79 -133.41,404.42 -230.9,845.6 -102.61,488.46 -287.32,672.29 -692.66,688.05 H 6507.4 V 1360 h -446.38 z"
         style="fill:none;stroke:#ffffff;stroke-width:180;stroke-linecap:butt;stroke-linejoin:miter;stroke-miterlimit:10;stroke-dasharray:none;stroke-opacity:1"
         transform="matrix(0.13333333,0,0,-0.13333333,0,841.33333)" />
      <path
         id="path36"
         d="m 11438.1,1475.55 c -164.1,-84.04 -492.5,-168.07 -913.3,-168.07 -974.83,0 -1708.55,630.26 -1708.55,1791 0,1108.23 733.72,1859.29 1806.05,1859.29 431,0 703,-94.54 821,-157.57 l -107.8,-372.9 c -169.3,84.04 -410.4,147.06 -697.8,147.06 -810.66,0 -1349.41,-530.48 -1349.41,-1460.11 0,-866.63 487.44,-1423.37 1328.91,-1423.37 271.9,0 549,57.77 728.6,147.07 l 92.3,-362.4"
         style="fill:#ffffff;fill-opacity:1;fill-rule:nonzero;stroke:none"
         transform="matrix(0.13333333,0,0,-0.13333333,0,841.33333)" />
      <path
         id="path37"
         d="m 11438.1,1475.55 c -164.1,-84.04 -492.5,-168.07 -913.3,-168.07 -974.83,0 -1708.55,630.26 -1708.55,1791 0,1108.23 733.72,1859.29 1806.05,1859.29 431,0 703,-94.54 821,-157.57 l -107.8,-372.9 c -169.3,84.04 -410.4,147.06 -697.8,147.06 -810.66,0 -1349.41,-530.48 -1349.41,-1460.11 0,-866.63 487.44,-1423.37 1328.91,-1423.37 271.9,0 549,57.77 728.6,147.07 z"
         style="fill:none;stroke:#ffffff;stroke-width:180;stroke-linecap:butt;stroke-linejoin:miter;stroke-miterlimit:10;stroke-dasharray:none;stroke-opacity:1"
         transform="matrix(0.13333333,0,0,-0.13333333,0,841.33333)" />
      <path
         id="path38"
         d="m 14491,1475.55 c -164.2,-84.04 -492.6,-168.07 -913.3,-168.07 -974.9,0 -1708.6,630.26 -1708.6,1791 0,1108.23 733.7,1859.29 1806.1,1859.29 431,0 702.9,-94.54 820.9,-157.57 l -107.7,-372.9 c -169.3,84.04 -410.5,147.06 -697.8,147.06 -810.7,0 -1349.5,-530.48 -1349.5,-1460.11 0,-866.63 487.5,-1423.37 1328.9,-1423.37 272,0 549.1,57.77 728.6,147.07 l 92.4,-362.4"
         style="fill:#ffffff;fill-opacity:1;fill-rule:nonzero;stroke:none"
         transform="matrix(0.13333333,0,0,-0.13333333,0,841.33333)" />
      <path
         id="path39"
         d="m 14491,1475.55 c -164.2,-84.04 -492.6,-168.07 -913.3,-168.07 -974.9,0 -1708.6,630.26 -1708.6,1791 0,1108.23 733.7,1859.29 1806.1,1859.29 431,0 702.9,-94.54 820.9,-157.57 l -107.7,-372.9 c -169.3,84.04 -410.5,147.06 -697.8,147.06 -810.7,0 -1349.5,-530.48 -1349.5,-1460.11 0,-866.63 487.5,-1423.37 1328.9,-1423.37 272,0 549.1,57.77 728.6,147.07 z"
         style="fill:none;stroke:#ffffff;stroke-width:180;stroke-linecap:butt;stroke-linejoin:miter;stroke-miterlimit:10;stroke-dasharray:none;stroke-opacity:1"
         transform="matrix(0.13333333,0,0,-0.13333333,0,841.33333)" />
      <path
         id="path40"
         d="m 17754,4516.76 h 220 c 230,0 375.9,119.31 375.9,299.47 0,203.54 -155.8,292.45 -383.3,294.79 -103.8,0 -178,-9.36 -212.6,-18.72 z m -215.2,718.26 c 108.8,21.06 264.6,32.76 413,32.76 229.9,0 378.3,-39.77 482.2,-128.68 84,-70.2 131,-177.81 131,-299.47 0,-208.24 -138.5,-346.27 -314,-402.43 v -7.01 c 128.6,-42.12 205.2,-154.42 244.8,-318.19 54.4,-219.92 93.9,-372 128.6,-432.83 h -222.6 c -27.2,44.45 -64.3,180.15 -111.3,376.68 -49.4,217.59 -138.4,299.47 -333.8,306.49 H 17754 v -683.17 h -215.2 v 1555.85"
         style="fill:#ee2432;fill-opacity:1;fill-rule:nonzero;stroke:none"
         transform="matrix(0.13333333,0,0,-0.13333333,0,841.33333)" />
      <path
         id="path41"
         d="m 17754,4516.76 h 220 c 230,0 375.9,119.31 375.9,299.47 0,203.54 -155.8,292.45 -383.3,294.79 -103.8,0 -178,-9.36 -212.6,-18.72 z m -215.2,718.26 c 108.8,21.06 264.6,32.76 413,32.76 229.9,0 378.3,-39.77 482.2,-128.68 84,-70.2 131,-177.81 131,-299.47 0,-208.24 -138.5,-346.27 -314,-402.43 v -7.01 c 128.6,-42.12 205.2,-154.42 244.8,-318.19 54.4,-219.92 93.9,-372 128.6,-432.83 h -222.6 c -27.2,44.45 -64.3,180.15 -111.3,376.68 -49.4,217.59 -138.4,299.47 -333.8,306.49 H 17754 v -683.17 h -215.2 z"
         style="fill:none;stroke:#ee2432;stroke-width:130;stroke-linecap:butt;stroke-linejoin:miter;stroke-miterlimit:10;stroke-dasharray:none;stroke-opacity:1"
         transform="matrix(0.13333333,0,0,-0.13333333,0,841.33333)" />
      <path
         id="path42"
         d="m 19682.7,4355.32 c 2.4,131.02 -56.9,334.57 -301.7,334.57 -220.1,0 -316.5,-191.86 -333.8,-334.57 z m -638,-147.39 c 5,-278.42 192.9,-393.06 410.5,-393.06 155.8,0 249.7,25.73 331.3,58.49 l 37.1,-147.4 c -76.6,-32.76 -207.7,-70.19 -398.1,-70.19 -368.4,0 -588.5,229.29 -588.5,570.87 0,341.59 212.7,610.64 561.3,610.64 390.7,0 494.5,-325.2 494.5,-533.43 0,-42.11 -4.9,-74.87 -7.4,-95.92 h -840.7"
         style="fill:#ee2432;fill-opacity:1;fill-rule:nonzero;stroke:none"
         transform="matrix(0.13333333,0,0,-0.13333333,0,841.33333)" />
      <path
         id="path43"
         d="m 19682.7,4355.32 c 2.4,131.02 -56.9,334.57 -301.7,334.57 -220.1,0 -316.5,-191.86 -333.8,-334.57 z m -638,-147.39 c 5,-278.42 192.9,-393.06 410.5,-393.06 155.8,0 249.7,25.73 331.3,58.49 l 37.1,-147.4 c -76.6,-32.76 -207.7,-70.19 -398.1,-70.19 -368.4,0 -588.5,229.29 -588.5,570.87 0,341.59 212.7,610.64 561.3,610.64 390.7,0 494.5,-325.2 494.5,-533.43 0,-42.11 -4.9,-74.87 -7.4,-95.92 z"
         style="fill:none;stroke:#ee2432;stroke-width:130;stroke-linecap:butt;stroke-linejoin:miter;stroke-miterlimit:10;stroke-dasharray:none;stroke-opacity:1"
         transform="matrix(0.13333333,0,0,-0.13333333,0,841.33333)" />
      <path
         id="path44"
         d="m 20298.4,4811.55 234.9,-636.38 c 39.5,-102.95 71.7,-196.53 96.4,-290.11 h 7.4 c 27.2,93.58 61.8,187.16 101.4,290.11 l 232.4,636.38 h 227.5 l -469.8,-1132.38 h -207.7 l -455,1132.38 h 232.5"
         style="fill:#ee2432;fill-opacity:1;fill-rule:nonzero;stroke:none"
         transform="matrix(0.13333333,0,0,-0.13333333,0,841.33333)" />
      <path
         id="path45"
         d="m 20298.4,4811.55 234.9,-636.38 c 39.5,-102.95 71.7,-196.53 96.4,-290.11 h 7.4 c 27.2,93.58 61.8,187.16 101.4,290.11 l 232.4,636.38 h 227.5 l -469.8,-1132.38 h -207.7 l -455,1132.38 z"
         style="fill:none;stroke:#ee2432;stroke-width:130;stroke-linecap:butt;stroke-linejoin:miter;stroke-miterlimit:10;stroke-dasharray:none;stroke-opacity:1"
         transform="matrix(0.13333333,0,0,-0.13333333,0,841.33333)" />
      <path
         id="path46"
         d="m 21455.6,4505.06 c 0,116.98 -2.5,212.91 -9.9,306.49 h 190.4 l 9.9,-182.49 h 7.4 c 66.8,107.62 178,208.22 375.8,208.22 163.2,0 286.9,-93.58 338.8,-226.94 h 4.9 c 37.1,63.17 84.1,112.3 133.6,147.4 71.7,51.47 150.8,79.54 264.5,79.54 158.3,0 393.2,-98.26 393.2,-491.32 v -666.79 h -212.6 v 641.05 c 0,217.59 -84.1,348.62 -259.7,348.62 -123.6,0 -220.1,-86.58 -257.1,-187.18 -9.9,-28.08 -17.3,-65.51 -17.3,-102.94 v -699.55 h -212.7 v 678.49 c 0,180.15 -84.1,311.18 -249.7,311.18 -136,0 -234.9,-102.95 -269.6,-205.89 -12.3,-30.42 -17.3,-65.52 -17.3,-100.61 v -683.17 h -212.6 v 825.89"
         style="fill:#ee2432;fill-opacity:1;fill-rule:nonzero;stroke:none"
         transform="matrix(0.13333333,0,0,-0.13333333,0,841.33333)" />
      <path
         id="path47"
         d="m 21455.6,4505.06 c 0,116.98 -2.5,212.91 -9.9,306.49 h 190.4 l 9.9,-182.49 h 7.4 c 66.8,107.62 178,208.22 375.8,208.22 163.2,0 286.9,-93.58 338.8,-226.94 h 4.9 c 37.1,63.17 84.1,112.3 133.6,147.4 71.7,51.47 150.8,79.54 264.5,79.54 158.3,0 393.2,-98.26 393.2,-491.32 v -666.79 h -212.6 v 641.05 c 0,217.59 -84.1,348.62 -259.7,348.62 -123.6,0 -220.1,-86.58 -257.1,-187.18 -9.9,-28.08 -17.3,-65.51 -17.3,-102.94 v -699.55 h -212.7 v 678.49 c 0,180.15 -84.1,311.18 -249.7,311.18 -136,0 -234.9,-102.95 -269.6,-205.89 -12.3,-30.42 -17.3,-65.52 -17.3,-100.61 v -683.17 h -212.6 z"
         style="fill:none;stroke:#ee2432;stroke-width:130;stroke-linecap:butt;stroke-linejoin:miter;stroke-miterlimit:10;stroke-dasharray:none;stroke-opacity:1"
         transform="matrix(0.13333333,0,0,-0.13333333,0,841.33333)" />
      <path
         id="path48"
         d="m 24200.3,4257.06 c -237.4,4.68 -506.9,-35.1 -506.9,-255.02 0,-133.36 94,-196.53 205.2,-196.53 155.8,0 254.7,93.58 289.3,189.51 7.5,21.05 12.4,44.45 12.4,65.5 z m 32.1,-577.89 -17.3,142.71 h -7.4 c -66.7,-88.9 -195.3,-168.44 -365.9,-168.44 -242.4,0 -366,161.43 -366,325.2 0,273.74 257.2,423.48 719.6,421.13 v 23.4 c 0,93.59 -27.2,262.04 -272,262.04 -111.3,0 -227.5,-32.75 -311.6,-84.23 l -49.5,135.7 c 99,60.83 242.4,100.6 393.2,100.6 366,0 455,-236.3 455,-463.24 v -423.48 c 0,-98.26 4.9,-194.19 19.8,-271.39 h -197.9"
         style="fill:#ee2432;fill-opacity:1;fill-rule:nonzero;stroke:none"
         transform="matrix(0.13333333,0,0,-0.13333333,0,841.33333)" />
      <path
         id="path49"
         d="m 24200.3,4257.06 c -237.4,4.68 -506.9,-35.1 -506.9,-255.02 0,-133.36 94,-196.53 205.2,-196.53 155.8,0 254.7,93.58 289.3,189.51 7.5,21.05 12.4,44.45 12.4,65.5 z m 32.1,-577.89 -17.3,142.71 h -7.4 c -66.7,-88.9 -195.3,-168.44 -365.9,-168.44 -242.4,0 -366,161.43 -366,325.2 0,273.74 257.2,423.48 719.6,421.13 v 23.4 c 0,93.59 -27.2,262.04 -272,262.04 -111.3,0 -227.5,-32.75 -311.6,-84.23 l -49.5,135.7 c 99,60.83 242.4,100.6 393.2,100.6 366,0 455,-236.3 455,-463.24 v -423.48 c 0,-98.26 4.9,-194.19 19.8,-271.39 z"
         style="fill:none;stroke:#ee2432;stroke-width:130;stroke-linecap:butt;stroke-linejoin:miter;stroke-miterlimit:10;stroke-dasharray:none;stroke-opacity:1"
         transform="matrix(0.13333333,0,0,-0.13333333,0,841.33333)" />
      <path
         id="path50"
         d="m 26561.7,3730.64 c -79.1,-37.44 -237.4,-74.87 -440.1,-74.87 -469.8,0 -823.4,280.76 -823.4,797.81 0,493.66 353.6,828.23 870.4,828.23 207.7,0 338.7,-42.11 395.6,-70.18 l -51.9,-166.11 c -81.6,37.43 -197.9,65.5 -336.3,65.5 -390.7,0 -650.3,-236.31 -650.3,-650.42 0,-386.03 234.9,-634.04 640.4,-634.04 131,0 264.6,25.74 351.1,65.52 l 44.5,-161.44"
         style="fill:#ee2432;fill-opacity:1;fill-rule:nonzero;stroke:none"
         transform="matrix(0.13333333,0,0,-0.13333333,0,841.33333)" />
      <path
         id="path51"
         d="m 26561.7,3730.64 c -79.1,-37.44 -237.4,-74.87 -440.1,-74.87 -469.8,0 -823.4,280.76 -823.4,797.81 0,493.66 353.6,828.23 870.4,828.23 207.7,0 338.7,-42.11 395.6,-70.18 l -51.9,-166.11 c -81.6,37.43 -197.9,65.5 -336.3,65.5 -390.7,0 -650.3,-236.31 -650.3,-650.42 0,-386.03 234.9,-634.04 640.4,-634.04 131,0 264.6,25.74 351.1,65.52 z"
         style="fill:none;stroke:#ee2432;stroke-width:130;stroke-linecap:butt;stroke-linejoin:miter;stroke-miterlimit:10;stroke-dasharray:none;stroke-opacity:1"
         transform="matrix(0.13333333,0,0,-0.13333333,0,841.33333)" />
      <path
         id="path52"
         d="m 27607.7,4355.32 c 2.4,131.02 -56.9,334.57 -301.7,334.57 -220.1,0 -316.5,-191.86 -333.8,-334.57 z m -638,-147.39 c 5,-278.42 192.9,-393.06 410.5,-393.06 155.8,0 249.7,25.73 331.3,58.49 l 37.1,-147.4 c -76.6,-32.76 -207.7,-70.19 -398.1,-70.19 -368.4,0 -588.5,229.29 -588.5,570.87 0,341.59 212.7,610.64 561.3,610.64 390.7,0 494.6,-325.2 494.6,-533.43 0,-42.11 -5,-74.87 -7.5,-95.92 h -840.7"
         style="fill:#ee2432;fill-opacity:1;fill-rule:nonzero;stroke:none"
         transform="matrix(0.13333333,0,0,-0.13333333,0,841.33333)" />
      <path
         id="path53"
         d="m 27607.7,4355.32 c 2.4,131.02 -56.9,334.57 -301.7,334.57 -220.1,0 -316.5,-191.86 -333.8,-334.57 z m -638,-147.39 c 5,-278.42 192.9,-393.06 410.5,-393.06 155.8,0 249.7,25.73 331.3,58.49 l 37.1,-147.4 c -76.6,-32.76 -207.7,-70.19 -398.1,-70.19 -368.4,0 -588.5,229.29 -588.5,570.87 0,341.59 212.7,610.64 561.3,610.64 390.7,0 494.6,-325.2 494.6,-533.43 0,-42.11 -5,-74.87 -7.5,-95.92 z"
         style="fill:none;stroke:#ee2432;stroke-width:130;stroke-linecap:butt;stroke-linejoin:miter;stroke-miterlimit:10;stroke-dasharray:none;stroke-opacity:1"
         transform="matrix(0.13333333,0,0,-0.13333333,0,841.33333)" />
      <path
         id="path54"
         d="m 28139.3,4505.06 c 0,116.98 -2.5,212.91 -9.9,306.49 h 192.9 l 12.4,-187.17 h 4.9 c 59.3,107.62 197.8,212.9 395.6,212.9 165.7,0 422.9,-93.58 422.9,-481.96 v -676.15 h -217.6 v 652.75 c 0,182.49 -71.7,334.57 -277,334.57 -143.4,0 -254.7,-95.93 -291.7,-210.56 -9.9,-25.74 -14.9,-60.83 -14.9,-95.93 v -680.83 h -217.6 v 825.89"
         style="fill:#ee2432;fill-opacity:1;fill-rule:nonzero;stroke:none"
         transform="matrix(0.13333333,0,0,-0.13333333,0,841.33333)" />
      <path
         id="path55"
         d="m 28139.3,4505.06 c 0,116.98 -2.5,212.91 -9.9,306.49 h 192.9 l 12.4,-187.17 h 4.9 c 59.3,107.62 197.8,212.9 395.6,212.9 165.7,0 422.9,-93.58 422.9,-481.96 v -676.15 h -217.6 v 652.75 c 0,182.49 -71.7,334.57 -277,334.57 -143.4,0 -254.7,-95.93 -291.7,-210.56 -9.9,-25.74 -14.9,-60.83 -14.9,-95.93 v -680.83 h -217.6 z"
         style="fill:none;stroke:#ee2432;stroke-width:130;stroke-linecap:butt;stroke-linejoin:miter;stroke-miterlimit:10;stroke-dasharray:none;stroke-opacity:1"
         transform="matrix(0.13333333,0,0,-0.13333333,0,841.33333)" />
      <path
         id="path56"
         d="m 29815.8,5136.76 v -325.21 h 311.6 v -156.76 h -311.6 v -610.64 c 0,-140.38 42,-219.92 163.2,-219.92 56.9,0 98.9,7.02 126.1,14.03 l 9.9,-154.41 c -42,-16.38 -108.8,-28.08 -192.9,-28.08 -101.3,0 -182.9,30.42 -234.9,86.57 -61.8,60.83 -84,161.43 -84,294.79 v 617.66 h -185.5 v 156.76 h 185.5 v 271.4 l 212.6,53.81"
         style="fill:#ee2432;fill-opacity:1;fill-rule:nonzero;stroke:none"
         transform="matrix(0.13333333,0,0,-0.13333333,0,841.33333)" />
      <path
         id="path57"
         d="m 29815.8,5136.76 v -325.21 h 311.6 v -156.76 h -311.6 v -610.64 c 0,-140.38 42,-219.92 163.2,-219.92 56.9,0 98.9,7.02 126.1,14.03 l 9.9,-154.41 c -42,-16.38 -108.8,-28.08 -192.9,-28.08 -101.3,0 -182.9,30.42 -234.9,86.57 -61.8,60.83 -84,161.43 -84,294.79 v 617.66 h -185.5 v 156.76 h 185.5 v 271.4 z"
         style="fill:none;stroke:#ee2432;stroke-width:130;stroke-linecap:butt;stroke-linejoin:miter;stroke-miterlimit:10;stroke-dasharray:none;stroke-opacity:1"
         transform="matrix(0.13333333,0,0,-0.13333333,0,841.33333)" />
      <path
         id="path58"
         d="m 31168.4,4355.32 c 2.4,131.02 -56.9,334.57 -301.7,334.57 -220.1,0 -316.5,-191.86 -333.8,-334.57 z m -638,-147.39 c 5,-278.42 192.9,-393.06 410.5,-393.06 155.8,0 249.7,25.73 331.3,58.49 l 37.1,-147.4 c -76.6,-32.76 -207.7,-70.19 -398.1,-70.19 -368.4,0 -588.5,229.29 -588.5,570.87 0,341.59 212.7,610.64 561.3,610.64 390.7,0 494.5,-325.2 494.5,-533.43 0,-42.11 -4.9,-74.87 -7.4,-95.92 h -840.7"
         style="fill:#ee2432;fill-opacity:1;fill-rule:nonzero;stroke:none"
         transform="matrix(0.13333333,0,0,-0.13333333,0,841.33333)" />
      <path
         id="path59"
         d="m 31168.4,4355.32 c 2.4,131.02 -56.9,334.57 -301.7,334.57 -220.1,0 -316.5,-191.86 -333.8,-334.57 z m -638,-147.39 c 5,-278.42 192.9,-393.06 410.5,-393.06 155.8,0 249.7,25.73 331.3,58.49 l 37.1,-147.4 c -76.6,-32.76 -207.7,-70.19 -398.1,-70.19 -368.4,0 -588.5,229.29 -588.5,570.87 0,341.59 212.7,610.64 561.3,610.64 390.7,0 494.5,-325.2 494.5,-533.43 0,-42.11 -4.9,-74.87 -7.4,-95.92 z"
         style="fill:none;stroke:#ee2432;stroke-width:130;stroke-linecap:butt;stroke-linejoin:miter;stroke-miterlimit:10;stroke-dasharray:none;stroke-opacity:1"
         transform="matrix(0.13333333,0,0,-0.13333333,0,841.33333)" />
      <path
         id="path60"
         d="m 31700,4458.27 c 0,133.35 -2.5,248 -9.9,353.28 h 190.4 l 7.4,-222.27 h 9.9 c 54.4,152.07 185.5,248 331.4,248 24.7,0 42,-2.33 61.8,-7.02 v -194.19 c -22.3,4.69 -44.5,7.02 -74.2,7.02 -153.3,0 -262.1,-109.96 -291.8,-264.37 -4.9,-28.08 -9.9,-60.83 -9.9,-95.93 V 3679.17 H 31700 v 779.1"
         style="fill:#ee2432;fill-opacity:1;fill-rule:nonzero;stroke:none"
         transform="matrix(0.13333333,0,0,-0.13333333,0,841.33333)" />
      <path
         id="path61"
         d="m 31700,4458.27 c 0,133.35 -2.5,248 -9.9,353.28 h 190.4 l 7.4,-222.27 h 9.9 c 54.4,152.07 185.5,248 331.4,248 24.7,0 42,-2.33 61.8,-7.02 v -194.19 c -22.3,4.69 -44.5,7.02 -74.2,7.02 -153.3,0 -262.1,-109.96 -291.8,-264.37 -4.9,-28.08 -9.9,-60.83 -9.9,-95.93 V 3679.17 H 31700 Z"
         style="fill:none;stroke:#ee2432;stroke-width:130;stroke-linecap:butt;stroke-linejoin:miter;stroke-miterlimit:10;stroke-dasharray:none;stroke-opacity:1"
         transform="matrix(0.13333333,0,0,-0.13333333,0,841.33333)" />
      <path
         id="path62"
         d="m 23144.4,1187.49 c -91.1,-39.28 -273.3,-78.58 -506.7,-78.58 -540.9,0 -948,294.69 -948,837.39 0,518.15 407.1,869.3 1002.1,869.3 239.1,0 390,-44.2 455.4,-73.66 l -59.7,-174.36 c -94,39.29 -227.8,68.76 -387.2,68.76 -449.8,0 -748.7,-248.02 -748.7,-682.68 0,-405.18 270.5,-665.49 737.3,-665.49 150.9,0 304.6,27.02 404.2,68.77 l 51.3,-169.45"
         style="fill:#ee2432;fill-opacity:1;fill-rule:nonzero;stroke:none"
         transform="matrix(0.13333333,0,0,-0.13333333,0,841.33333)" />
      <path
         id="path63"
         d="m 23144.4,1187.49 c -91.1,-39.28 -273.3,-78.58 -506.7,-78.58 -540.9,0 -948,294.69 -948,837.39 0,518.15 407.1,869.3 1002.1,869.3 239.1,0 390,-44.2 455.4,-73.66 l -59.7,-174.36 c -94,39.29 -227.8,68.76 -387.2,68.76 -449.8,0 -748.7,-248.02 -748.7,-682.68 0,-405.18 270.5,-665.49 737.3,-665.49 150.9,0 304.6,27.02 404.2,68.77 z"
         style="fill:none;stroke:#ee2432;stroke-width:110;stroke-linecap:butt;stroke-linejoin:miter;stroke-miterlimit:10;stroke-dasharray:none;stroke-opacity:1"
         transform="matrix(0.13333333,0,0,-0.13333333,0,841.33333)" />
      <path
         id="path64"
         d="m 23446.1,2876.99 h 250.5 V 1133.47 h -250.5 v 1743.52"
         style="fill:#ee2432;fill-opacity:1;fill-rule:nonzero;stroke:none"
         transform="matrix(0.13333333,0,0,-0.13333333,0,841.33333)" />
      <path
         id="path65"
         d="m 23446.1,2876.99 h 250.5 V 1133.47 h -250.5 z"
         style="fill:none;stroke:#ee2432;stroke-width:110;stroke-linecap:butt;stroke-linejoin:miter;stroke-miterlimit:10;stroke-dasharray:none;stroke-opacity:1"
         transform="matrix(0.13333333,0,0,-0.13333333,0,841.33333)" />
      <path
         id="path66"
         d="m 24117.9,1133.47 v 1188.54 h 250.5 V 1133.47 Z m 279,1522.51 c 2.8,-73.66 -59.8,-132.6 -159.4,-132.6 -88.3,0 -150.9,58.94 -150.9,132.6 0,76.13 65.5,135.07 156.6,135.07 93.9,0 153.7,-58.94 153.7,-135.07"
         style="fill:#ee2432;fill-opacity:1;fill-rule:nonzero;stroke:none"
         transform="matrix(0.13333333,0,0,-0.13333333,0,841.33333)" />
      <path
         id="path67"
         d="m 24117.9,1133.47 v 1188.54 h 250.5 V 1133.47 Z m 279,1522.51 c 2.8,-73.66 -59.8,-132.6 -159.4,-132.6 -88.3,0 -150.9,58.94 -150.9,132.6 0,76.13 65.5,135.07 156.6,135.07 93.9,0 153.7,-58.94 153.7,-135.07 z"
         style="fill:none;stroke:#ee2432;stroke-width:110;stroke-linecap:butt;stroke-linejoin:miter;stroke-miterlimit:10;stroke-dasharray:none;stroke-opacity:1"
         transform="matrix(0.13333333,0,0,-0.13333333,0,841.33333)" />
      <path
         id="path68"
         d="m 24784,2000.31 c 0,122.79 -2.8,223.48 -11.4,321.7 h 222.1 l 14.2,-196.45 h 5.7 c 68.3,112.96 227.7,223.47 455.5,223.47 190.7,0 486.7,-98.23 486.7,-505.88 v -709.68 h -250.5 v 685.13 c 0,191.54 -82.5,351.16 -318.8,351.16 -165.1,0 -293.2,-100.69 -335.9,-221.01 -11.4,-27.01 -17.1,-63.85 -17.1,-100.68 v -714.6 H 24784 v 866.84"
         style="fill:#ee2432;fill-opacity:1;fill-rule:nonzero;stroke:none"
         transform="matrix(0.13333333,0,0,-0.13333333,0,841.33333)" />
      <path
         id="path69"
         d="m 24784,2000.31 c 0,122.79 -2.8,223.48 -11.4,321.7 h 222.1 l 14.2,-196.45 h 5.7 c 68.3,112.96 227.7,223.47 455.5,223.47 190.7,0 486.7,-98.23 486.7,-505.88 v -709.68 h -250.5 v 685.13 c 0,191.54 -82.5,351.16 -318.8,351.16 -165.1,0 -293.2,-100.69 -335.9,-221.01 -11.4,-27.01 -17.1,-63.85 -17.1,-100.68 v -714.6 H 24784 Z"
         style="fill:none;stroke:#ee2432;stroke-width:110;stroke-linecap:butt;stroke-linejoin:miter;stroke-miterlimit:10;stroke-dasharray:none;stroke-opacity:1"
         transform="matrix(0.13333333,0,0,-0.13333333,0,841.33333)" />
      <path
         id="path70"
         d="m 26363.9,1133.47 v 1188.54 h 250.5 V 1133.47 Z m 279,1522.51 c 2.8,-73.66 -59.8,-132.6 -159.4,-132.6 -88.3,0 -150.9,58.94 -150.9,132.6 0,76.13 65.5,135.07 156.6,135.07 93.9,0 153.7,-58.94 153.7,-135.07"
         style="fill:#ee2432;fill-opacity:1;fill-rule:nonzero;stroke:none"
         transform="matrix(0.13333333,0,0,-0.13333333,0,841.33333)" />
      <path
         id="path71"
         d="m 26363.9,1133.47 v 1188.54 h 250.5 V 1133.47 Z m 279,1522.51 c 2.8,-73.66 -59.8,-132.6 -159.4,-132.6 -88.3,0 -150.9,58.94 -150.9,132.6 0,76.13 65.5,135.07 156.6,135.07 93.9,0 153.7,-58.94 153.7,-135.07 z"
         style="fill:none;stroke:#ee2432;stroke-width:110;stroke-linecap:butt;stroke-linejoin:miter;stroke-miterlimit:10;stroke-dasharray:none;stroke-opacity:1"
         transform="matrix(0.13333333,0,0,-0.13333333,0,841.33333)" />
      <path
         id="path72"
         d="m 28012.1,1177.66 c -65.4,-29.45 -210.6,-68.75 -395.7,-68.75 -415.6,0 -686,243.11 -686,606.55 0,365.89 290.4,631.11 740.1,631.11 148.1,0 279,-31.92 347.3,-61.39 l -56.9,-166.99 c -59.8,29.47 -153.7,56.49 -290.4,56.49 -315.9,0 -486.7,-201.37 -486.7,-449.39 0,-275.03 204.9,-444.48 478.2,-444.48 142.3,0 236.3,31.92 307.4,58.94 l 42.7,-162.09"
         style="fill:#ee2432;fill-opacity:1;fill-rule:nonzero;stroke:none"
         transform="matrix(0.13333333,0,0,-0.13333333,0,841.33333)" />
      <path
         id="path73"
         d="m 28012.1,1177.66 c -65.4,-29.45 -210.6,-68.75 -395.7,-68.75 -415.6,0 -686,243.11 -686,606.55 0,365.89 290.4,631.11 740.1,631.11 148.1,0 279,-31.92 347.3,-61.39 l -56.9,-166.99 c -59.8,29.47 -153.7,56.49 -290.4,56.49 -315.9,0 -486.7,-201.37 -486.7,-449.39 0,-275.03 204.9,-444.48 478.2,-444.48 142.3,0 236.3,31.92 307.4,58.94 z"
         style="fill:none;stroke:#ee2432;stroke-width:110;stroke-linecap:butt;stroke-linejoin:miter;stroke-miterlimit:10;stroke-dasharray:none;stroke-opacity:1"
         transform="matrix(0.13333333,0,0,-0.13333333,0,841.33333)" />
    </g>
  </g>
</svg>
